<svg width="40" height="40" viewBox="0 0 40 40" fill="none" xmlns="http://www.w3.org/2000/svg">
<path d="M30.7999 5.60005C31.0208 5.60005 31.1999 5.42096 31.1999 5.20005C31.1999 4.97913 31.0208 4.80005 30.7999 4.80005C30.579 4.80005 30.3999 4.97913 30.3999 5.20005C30.3999 5.42096 30.579 5.60005 30.7999 5.60005Z" fill="#F1BC19"/>
<path d="M19.9997 34.8C28.1735 34.8 34.7997 28.1738 34.7997 20C34.7997 11.8262 28.1735 5.20001 19.9997 5.20001C11.8259 5.20001 5.19971 11.8262 5.19971 20C5.19971 28.1738 11.8259 34.8 19.9997 34.8Z" fill="#C6D9EF"/>
<path d="M33.2001 7.60002C34.0838 7.60002 34.8001 6.88368 34.8001 6.00002C34.8001 5.11637 34.0838 4.40002 33.2001 4.40002C32.3164 4.40002 31.6001 5.11637 31.6001 6.00002C31.6001 6.88368 32.3164 7.60002 33.2001 7.60002Z" fill="#F1BC19"/>
<path d="M34.8 10.4C35.2418 10.4 35.6 10.0419 35.6 9.60005C35.6 9.15822 35.2418 8.80005 34.8 8.80005C34.3582 8.80005 34 9.15822 34 9.60005C34 10.0419 34.3582 10.4 34.8 10.4Z" fill="#8889B9"/>
<path d="M32.4001 31.2C32.8419 31.2 33.2001 30.8419 33.2001 30.4C33.2001 29.9582 32.8419 29.6 32.4001 29.6C31.9583 29.6 31.6001 29.9582 31.6001 30.4C31.6001 30.8419 31.9583 31.2 32.4001 31.2Z" fill="#FBCD59"/>
<path d="M5.9999 26.8C6.88356 26.8 7.5999 26.0837 7.5999 25.2C7.5999 24.3164 6.88356 23.6 5.9999 23.6C5.11625 23.6 4.3999 24.3164 4.3999 25.2C4.3999 26.0837 5.11625 26.8 5.9999 26.8Z" fill="#FBCD59"/>
<path d="M9.99971 35.6C10.4415 35.6 10.7997 35.2418 10.7997 34.8C10.7997 34.3582 10.4415 34 9.99971 34C9.55788 34 9.19971 34.3582 9.19971 34.8C9.19971 35.2418 9.55788 35.6 9.99971 35.6Z" fill="#8889B9"/>
<path d="M7.3999 21.6C7.95219 21.6 8.3999 21.1523 8.3999 20.6C8.3999 20.0478 7.95219 19.6 7.3999 19.6C6.84762 19.6 6.3999 20.0478 6.3999 20.6C6.3999 21.1523 6.84762 21.6 7.3999 21.6Z" fill="white"/>
<path d="M31.7997 14C32.1311 14 32.3997 13.7314 32.3997 13.4C32.3997 13.0687 32.1311 12.8 31.7997 12.8C31.4683 12.8 31.1997 13.0687 31.1997 13.4C31.1997 13.7314 31.4683 14 31.7997 14Z" fill="white"/>
<path d="M26.2798 21.1201V17.6801H27.7646C28.071 17.6801 28.3198 17.9289 28.3198 18.2353V20.5649C28.3198 20.8713 28.071 21.1201 27.7646 21.1201H26.2798Z" fill="#FDFCEF"/>
<path d="M27.7648 17.96C27.9164 17.96 28.04 18.0836 28.04 18.2352V20.5648C28.04 20.7164 27.9164 20.84 27.7648 20.84H26.56V17.96H27.7648ZM27.7648 17.4H26V21.4H27.7648C28.226 21.4 28.6 21.026 28.6 20.5648V18.2352C28.6 17.774 28.226 17.4 27.7648 17.4Z" fill="#472B29"/>
<path d="M11.6353 21.1201C11.3289 21.1201 11.0801 20.8713 11.0801 20.5649V18.2353C11.0801 17.9289 11.3289 17.6801 11.6353 17.6801H13.1201V21.1201H11.6353Z" fill="#FDFCEF"/>
<path d="M12.8398 17.96V20.84H11.635C11.4834 20.84 11.3598 20.7164 11.3598 20.5648V18.2352C11.3598 18.0836 11.4834 17.96 11.635 17.96H12.8398ZM13.3998 17.4H11.635C11.1738 17.4 10.7998 17.774 10.7998 18.2352V20.5648C10.7998 21.026 11.1738 21.4 11.635 21.4H13.3998V17.4Z" fill="#472B29"/>
<path d="M13.2 26.6L12.1 25.45C12.1 25.45 9.50002 22.9 12.8 20.4C14 22.4 15.6 24.4 15.6 24.4L13.2 26.6Z" fill="#CBC9BC"/>
<path d="M26.7248 26.3252L28.2 24.5752C28.2 24.5752 29.8 22.2252 26.6 20.6252C25.4 22.6252 24 24.4 24 24.4L26.7248 26.3252Z" fill="#CBC9BC"/>
<path d="M19.8248 8.6752C24.0368 8.6752 27.6468 11.1348 27.5748 15.9252C27.5 20.9252 24.012 26.5752 19.8 26.5752C17.5008 26.5752 15.402 24.8764 13.9624 22.508C12.7648 20.5376 12.0228 18.1044 12 15.8C11.9528 11.0092 15.6632 8.6748 19.8748 8.6748" fill="white"/>
<path d="M13.9617 22.708C13.8945 22.708 13.8285 22.674 13.7909 22.612C12.5477 20.5676 11.8217 18.0856 11.7993 15.8024C11.7981 15.692 11.8869 15.6016 11.9973 15.6004C11.9981 15.6004 11.9985 15.6004 11.9993 15.6004C12.1089 15.6004 12.1981 15.6888 12.1993 15.7984C12.2213 18.0116 12.9253 20.4196 14.1321 22.4044C14.1897 22.4988 14.1597 22.622 14.0653 22.6792C14.0333 22.6984 13.9973 22.708 13.9617 22.708Z" fill="#472B29"/>
<path d="M19.7997 26.7753C17.8533 26.7753 15.9261 25.6069 14.3741 23.4853C14.3089 23.3961 14.3281 23.2713 14.4173 23.2061C14.5061 23.1405 14.6313 23.1601 14.6965 23.2493C16.1717 25.2649 17.9841 26.3749 19.7997 26.3749C23.9773 26.3749 27.3021 20.7557 27.3749 15.9217C27.3765 15.8125 27.4661 15.7249 27.5749 15.7249C27.5757 15.7249 27.5769 15.7249 27.5781 15.7249C27.6881 15.7265 27.7765 15.8173 27.7749 15.9281C27.6993 20.9441 24.1993 26.7753 19.7997 26.7753Z" fill="#472B29"/>
<path d="M14.5 24.3252L18.3908 21.0256C19.0908 20.432 20.1156 20.424 20.8252 21.0068L24.9252 24.3752L14.5 24.3252Z" fill="#836F61"/>
<path d="M24.925 24.5752C24.9246 24.5752 24.9242 24.5752 24.9242 24.5752L14.499 24.5252C14.415 24.5248 14.3406 24.4724 14.3118 24.3936C14.2834 24.3152 14.3062 24.2268 14.3702 24.1728L17.5118 21.5084C17.5962 21.4372 17.7222 21.4472 17.7934 21.5316C17.865 21.616 17.8546 21.742 17.7702 21.8132L15.041 24.128L24.3626 24.1724L20.6974 21.1616C20.0618 20.6392 19.1462 20.6464 18.5194 21.1784C18.4358 21.2496 18.3094 21.2396 18.2374 21.1548C18.1662 21.0704 18.1766 20.9444 18.261 20.8728C19.0354 20.2172 20.1674 20.2084 20.9518 20.852L25.0518 24.2204C25.117 24.2744 25.1418 24.3632 25.113 24.4432C25.0842 24.5224 25.009 24.5752 24.925 24.5752Z" fill="#472B29"/>
<path d="M26.3746 25.1C23.9746 23.9 21.7998 22.8 21.7998 22.8L20.761 22.3672C20.0262 22.0608 19.197 22.074 18.4722 22.4036L17.5998 22.8C17.5998 22.8 15.4498 23.9252 13.0498 25.1252C10.6498 26.3252 14.3998 29.6 14.3998 29.6L19.6034 27.8636L25.1998 29.6C25.1998 29.6 28.7746 26.3 26.3746 25.1Z" fill="white"/>
<path d="M13.0499 25.3252C12.9767 25.3252 12.9063 25.2844 12.8711 25.2148C12.8219 25.116 12.8619 24.996 12.9607 24.9464C15.3315 23.7608 17.4859 22.6344 17.5075 22.6228L18.3895 22.2216C19.1627 21.87 20.0547 21.8564 20.8379 22.1824L21.8771 22.6152C21.8903 22.6216 24.0651 23.7216 26.4647 24.9212C26.5635 24.9708 26.6035 25.0908 26.5543 25.1896C26.5051 25.2888 26.3851 25.3284 26.2859 25.2792C23.8855 24.0788 21.7103 22.9788 21.7103 22.9788L20.6839 22.552C20.0031 22.268 19.2275 22.2804 18.5551 22.5856L17.6827 22.982C17.6711 22.9884 15.5135 24.1168 13.1395 25.304C13.1103 25.3184 13.0799 25.3252 13.0499 25.3252Z" fill="#472B29"/>
<path d="M18.3625 26.0196C18.4357 25.9096 18.5097 25.8012 18.5873 25.6984C18.8837 25.3076 19.2349 25 19.8001 25C19.9601 25 20.1053 25.0248 20.2381 25.0688C20.3405 25.1028 20.4357 25.1484 20.5249 25.2032C21.4469 25.7676 21.7569 27.3144 22.9001 27.3144C23.6749 27.3144 23.9949 27.3144 24.6437 27.3144C25.3929 27.3144 26.0001 27.9188 26.0001 28.6644C26.0001 29.41 25.2249 30.4 23.8689 30.4C20.9625 30.4 21.7377 28.4716 19.8245 28.4716C17.8629 28.4716 18.6377 30.4 15.7317 30.4C14.3749 30.4 13.6001 29.41 13.6001 28.6644C13.6001 27.9188 14.2073 27.3144 14.9565 27.3144C15.5881 27.3144 16.3129 27.3144 16.7001 27.3144C17.4245 27.3144 17.8109 26.8444 18.1585 26.328C18.2273 26.2256 18.2945 26.122 18.3625 26.0196Z" fill="#CBC9BC"/>
<path d="M24.6501 21.05C23.7085 21.05 22.7765 20.43 21.8757 19.8308C21.4757 19.5644 21.0621 19.2892 20.6641 19.0816C20.1233 18.7996 19.4765 18.7996 18.9361 19.0816C18.6245 19.244 18.3161 19.4404 18.0561 19.6112C17.9637 19.6712 17.8397 19.6464 17.7793 19.5536C17.7189 19.4608 17.7445 19.3372 17.8369 19.2768C18.1057 19.1008 18.4245 18.8976 18.7513 18.7268C19.4085 18.3844 20.1929 18.3844 20.8497 18.7268C21.2665 18.944 21.6893 19.2256 22.0977 19.4976C22.9493 20.064 23.8293 20.65 24.6505 20.65C25.0305 20.65 25.3609 20.5728 25.6329 20.4204C25.7285 20.3668 25.8509 20.4004 25.9053 20.4972C25.9593 20.5932 25.9249 20.7152 25.8285 20.7696C25.4957 20.9556 25.0997 21.05 24.6501 21.05Z" fill="#472B29"/>
<path d="M15.3469 21.0116C15.2529 21.0116 15.1689 20.9444 15.1509 20.8484C15.1305 20.74 15.2021 20.6352 15.3105 20.6152C15.8937 20.5068 16.4917 20.1568 17.0513 19.7948C17.1429 19.7352 17.2677 19.7604 17.3277 19.854C17.3873 19.9464 17.3609 20.0704 17.2685 20.1304C16.6749 20.5144 16.0353 20.8868 15.3841 21.0076C15.3717 21.0104 15.3593 21.0116 15.3469 21.0116Z" fill="#472B29"/>
<path d="M14.5883 21.0264C14.5795 21.0264 14.5703 21.026 14.5615 21.0244C14.2039 20.9768 13.8855 20.858 13.6147 20.6708C13.5235 20.6084 13.5011 20.4836 13.5639 20.3928C13.6267 20.3012 13.7515 20.2788 13.8419 20.342C14.0603 20.4924 14.3199 20.5888 14.6147 20.6284C14.7239 20.6428 14.8011 20.7432 14.7863 20.8532C14.7727 20.9536 14.6867 21.0264 14.5883 21.0264Z" fill="#472B29"/>
<path d="M16 29.6C16.5523 29.6 17 29.2866 17 28.9C17 28.5134 16.5523 28.2 16 28.2C15.4477 28.2 15 28.5134 15 28.9C15 29.2866 15.4477 29.6 16 29.6Z" fill="#8889B9"/>
<path d="M15.9999 29.7C15.3931 29.7 14.8999 29.3412 14.8999 28.9C14.8999 28.8448 14.9447 28.8 14.9999 28.8C15.0551 28.8 15.0999 28.8448 15.0999 28.9C15.0999 29.2308 15.5039 29.5 15.9999 29.5C16.2795 29.5 16.5391 29.4141 16.7115 29.2645C16.7543 29.2289 16.8171 29.2336 16.8531 29.2744C16.8891 29.316 16.8843 29.3796 16.8431 29.416C16.6343 29.5964 16.3267 29.7 15.9999 29.7Z" fill="#472B29"/>
<path d="M17.0001 29C16.9449 29 16.9001 28.9552 16.9001 28.9C16.9001 28.5692 16.4961 28.3 16.0001 28.3C15.7829 28.3 15.5729 28.3532 15.4085 28.4496C15.3601 28.4772 15.2993 28.4612 15.2713 28.414C15.2437 28.3664 15.2597 28.3052 15.3069 28.2768C15.5021 28.1628 15.7481 28.1 16.0001 28.1C16.6069 28.1 17.1001 28.4588 17.1001 28.9C17.1001 28.9552 17.0553 29 17.0001 29Z" fill="#472B29"/>
<path d="M23.6001 28.2C24.1525 28.2 24.6001 28.5136 24.6001 28.9C24.6001 29.2864 24.1525 29.6 23.6001 29.6C23.0477 29.6 22.6001 29.2864 22.6001 28.9C22.6001 28.5136 23.0477 28.2 23.6001 28.2Z" fill="#8889B9"/>
<path d="M23.6 29.7C22.9932 29.7 22.5 29.3412 22.5 28.9C22.5 28.8448 22.5448 28.8 22.6 28.8C22.6552 28.8 22.7 28.8448 22.7 28.9C22.7 29.2308 23.104 29.5 23.6 29.5C23.8796 29.5 24.1392 29.4141 24.3116 29.2645C24.3544 29.2289 24.4172 29.2336 24.4532 29.2744C24.4892 29.316 24.4844 29.3796 24.4432 29.416C24.2344 29.5964 23.9268 29.7 23.6 29.7Z" fill="#472B29"/>
<path d="M24.6 29C24.5448 29 24.5 28.9552 24.5 28.9C24.5 28.5692 24.096 28.3 23.6 28.3C23.5448 28.3 23.5 28.2552 23.5 28.2C23.5 28.1448 23.5448 28.1 23.6 28.1C24.2068 28.1 24.7 28.4588 24.7 28.9C24.7 28.9552 24.6552 29 24.6 29Z" fill="#472B29"/>
<path d="M22.9578 28.4632C22.9234 28.4632 22.8902 28.4456 22.8714 28.414C22.8438 28.3664 22.8598 28.3052 22.907 28.2768C23.1018 28.1628 23.3478 28.1 23.5998 28.1C23.655 28.1 23.6998 28.1448 23.6998 28.2C23.6998 28.2552 23.655 28.3 23.5998 28.3C23.3826 28.3 23.1726 28.3532 23.0082 28.4496C22.9922 28.4588 22.975 28.4632 22.9578 28.4632Z" fill="#472B29"/>
<path d="M14.8528 17H18.2296C18.3832 17 18.4588 17.1928 18.3452 17.3C17.834 17.7832 16.7804 18.7092 15.9328 19C14.9268 19.3452 14.5004 18.528 14.402 17.5004C14.3764 17.2312 14.59 17 14.8528 17Z" fill="#8889B9"/>
<path d="M15.4946 19.2808C15.285 19.2808 15.0946 19.226 14.9254 19.1176C14.5286 18.8616 14.2786 18.3092 14.2022 17.5196C14.1846 17.3356 14.2458 17.1516 14.3706 17.0148C14.495 16.878 14.6706 16.8 14.8526 16.8C14.963 16.8 15.0526 16.8896 15.0526 17C15.0526 17.1104 14.963 17.2 14.8526 17.2C14.783 17.2 14.7154 17.2304 14.667 17.2836C14.6174 17.3384 14.5938 17.4088 14.601 17.4812C14.6638 18.1352 14.8562 18.5968 15.1426 18.7812C15.3322 18.9032 15.569 18.9128 15.8678 18.8108C16.671 18.5352 17.705 17.6256 18.1598 17.2H15.7498C15.6394 17.2 15.5498 17.1104 15.5498 17C15.5498 16.8896 15.6394 16.8 15.7498 16.8H18.2294C18.3814 16.8 18.5158 16.8916 18.5726 17.034C18.6298 17.1776 18.5946 17.3392 18.4826 17.4452C17.9294 17.968 16.8718 18.8888 15.997 19.1888C15.8198 19.2504 15.6518 19.2808 15.4946 19.2808Z" fill="#472B29"/>
<path d="M24.7472 17H21.3704C21.2168 17 21.1412 17.1928 21.2548 17.3C21.766 17.7832 22.8196 18.7092 23.6672 19C24.6732 19.3452 25.0996 18.528 25.198 17.5004C25.2236 17.2312 25.01 17 24.7472 17Z" fill="#8889B9"/>
<path d="M24.1035 19.28C23.9463 19.28 23.7787 19.25 23.6023 19.1888C22.7271 18.8884 21.6695 17.9672 21.1171 17.4452C21.0055 17.3392 20.9699 17.178 21.0267 17.0344C21.0835 16.8916 21.2183 16.8 21.3703 16.8H24.7471C24.9291 16.8 25.1047 16.878 25.2287 17.0148C25.3535 17.1516 25.4147 17.3356 25.3971 17.5196C25.3579 17.9216 25.2747 18.2632 25.1495 18.5348C25.1031 18.6352 24.9847 18.6784 24.8839 18.6324C24.7839 18.586 24.7403 18.4672 24.7863 18.3668C24.8931 18.1364 24.9643 17.8384 24.9987 17.4812C25.0059 17.4084 24.9823 17.3384 24.9327 17.2836C24.8843 17.2304 24.8167 17.2 24.7471 17.2H21.4399C21.8947 17.6256 22.9275 18.5348 23.7315 18.8108C23.9663 18.8912 24.1695 18.9016 24.3355 18.8416C24.4383 18.804 24.5539 18.8572 24.5915 18.9616C24.6295 19.0656 24.5755 19.18 24.4715 19.2176C24.3571 19.2592 24.2339 19.28 24.1035 19.28Z" fill="#472B29"/>
<path d="M27.3997 15.4H12.1997V16.2H27.3997V15.4Z" fill="#836F61"/>
<path d="M19.7998 8.96002C23.3966 8.96002 27.2398 10.7832 27.2398 15.9C27.2398 17.3596 26.9702 18.8852 26.4602 20.312L26.3062 20.7424L26.697 20.9796C28.493 22.0688 28.8214 22.988 27.9394 24.4788L27.041 25.5872L26.8894 25.774L26.9206 26.0124C27.0342 26.88 25.7994 28.5592 24.9922 29.4156L24.9798 29.4288L24.9682 29.4428C24.785 29.666 24.3638 30.04 23.5998 30.04C22.2562 30.04 22.0138 29.6472 21.707 29.1504C21.4178 28.682 21.0218 28.04 19.8246 28.04C18.603 28.04 18.1954 28.684 17.8982 29.154C17.5854 29.6492 17.3382 30.04 15.9998 30.04C15.139 30.04 14.711 29.5644 14.5666 29.36L14.5422 29.3256L14.513 29.2952C13.385 28.12 12.341 26.5616 12.5286 25.8572L12.6046 25.5712L12.4114 25.3472L11.6366 24.4492C11.1786 23.8328 11.0102 23.2516 11.1358 22.722C11.2878 22.0824 11.8842 21.4876 12.8614 21.002L13.307 20.7808L13.1394 20.312C12.6294 18.8852 12.3598 17.3596 12.3598 15.9C12.3598 10.7832 16.203 8.96002 19.7998 8.96002ZM19.7998 8.40002C15.3814 8.40002 11.7998 10.8744 11.7998 15.9C11.7998 17.4696 12.0926 19.0472 12.6122 20.5004C10.3998 21.6 9.99984 23.2 11.1998 24.8L11.9874 25.7128C11.6358 27.034 13.7514 29.31 14.109 29.6824C14.4626 30.184 15.109 30.6 15.9998 30.6C18.9998 30.6 17.7998 28.6 19.8246 28.6C21.7998 28.6 20.5998 30.6 23.5998 30.6C24.4202 30.6 25.033 30.2464 25.401 29.7988C25.4194 29.7792 27.6678 27.4048 27.4758 25.94L28.3998 24.8C29.5998 22.8 28.7998 21.6 26.9874 20.5004C27.507 19.0468 27.7998 17.4696 27.7998 15.9C27.7998 10.8744 24.2182 8.40002 19.7998 8.40002Z" fill="#472B29"/>
<path d="M19.8001 29.4C20.4628 29.4 21.0001 28.5942 21.0001 27.6C21.0001 26.6059 20.4628 25.8 19.8001 25.8C19.1374 25.8 18.6001 26.6059 18.6001 27.6C18.6001 28.5942 19.1374 29.4 19.8001 29.4Z" fill="#836F61"/>
<path d="M19.7999 29.6C19.0147 29.6 18.3999 28.7216 18.3999 27.6C18.3999 26.4784 19.0147 25.6 19.7999 25.6C20.5851 25.6 21.1999 26.4784 21.1999 27.6C21.1999 28.7216 20.5851 29.6 19.7999 29.6ZM19.7999 26C19.2579 26 18.7999 26.7328 18.7999 27.6C18.7999 28.4672 19.2579 29.2 19.7999 29.2C20.3419 29.2 20.7999 28.4672 20.7999 27.6C20.7999 26.7328 20.3419 26 19.7999 26Z" fill="#472B29"/>
<path d="M12.1998 22.8C12.1266 22.8 12.0562 22.7592 12.021 22.6896C11.9718 22.5908 12.0118 22.4708 12.1106 22.4212L12.9106 22.0212C13.0098 21.9716 13.1294 22.012 13.179 22.1108C13.2282 22.2096 13.1882 22.3296 13.0894 22.3792L12.2894 22.7792C12.2602 22.7932 12.2298 22.8 12.1998 22.8Z" fill="#472B29"/>
<path d="M12.5997 23.6C12.5265 23.6 12.4561 23.5592 12.4209 23.4896C12.3717 23.3908 12.4117 23.2708 12.5105 23.2212L13.3105 22.8212C13.4097 22.7712 13.5293 22.812 13.5789 22.9108C13.6281 23.0096 13.5881 23.1296 13.4893 23.1792L12.6893 23.5792C12.6601 23.5932 12.6297 23.6 12.5997 23.6Z" fill="#472B29"/>
<path d="M13.0001 24.4C12.9269 24.4 12.8565 24.3592 12.8213 24.2896C12.7721 24.1908 12.8121 24.0708 12.9109 24.0212L13.7109 23.6212C13.8097 23.572 13.9297 23.612 13.9793 23.7108C14.0285 23.8096 13.9885 23.9296 13.8897 23.9792L13.0897 24.3792C13.0605 24.3932 13.0301 24.4 13.0001 24.4Z" fill="#472B29"/>
<path d="M27.4001 22.8C27.3701 22.8 27.3397 22.7932 27.3105 22.7788L26.5105 22.3788C26.4117 22.3292 26.3717 22.2092 26.4209 22.1104C26.4705 22.012 26.5905 21.9716 26.6893 22.0208L27.4893 22.4208C27.5881 22.4704 27.6281 22.5904 27.5789 22.6892C27.5437 22.7592 27.4733 22.8 27.4001 22.8Z" fill="#472B29"/>
<path d="M26.9998 23.6C26.9698 23.6 26.9394 23.5932 26.9102 23.5788L26.1102 23.1788C26.0114 23.1292 25.9714 23.0092 26.0206 22.9104C26.0706 22.8116 26.1902 22.7712 26.289 22.8208L27.089 23.2208C27.1878 23.2704 27.2278 23.3904 27.1786 23.4892C27.1434 23.5592 27.073 23.6 26.9998 23.6Z" fill="#472B29"/>
<path d="M26.5998 24.4C26.5698 24.4 26.5394 24.3932 26.5102 24.3788L25.7102 23.9788C25.6114 23.9292 25.5714 23.8092 25.6206 23.7104C25.6702 23.612 25.7906 23.5724 25.889 23.6208L26.689 24.0208C26.7878 24.0704 26.8278 24.1904 26.7786 24.2892C26.7434 24.3592 26.673 24.4 26.5998 24.4Z" fill="#472B29"/>
<path d="M19.7999 20.4H19.3999V22H19.7999V20.4Z" fill="#472B29"/>
<path d="M20.7999 20.8H20.3999V22.4H20.7999V20.8Z" fill="#472B29"/>
<path d="M18.7999 20.8H18.3999V22.4H18.7999V20.8Z" fill="#472B29"/>
<path d="M17.5997 21.8H17.1997V22.8H17.5997V21.8Z" fill="#472B29"/>
<path d="M22.0001 21.8H21.6001V22.8H22.0001V21.8Z" fill="#472B29"/>
<path d="M26.0001 28.8644C25.8897 28.8644 25.8001 28.7748 25.8001 28.6644C25.8001 28.0304 25.2813 27.5144 24.6437 27.5144H22.9001C22.1149 27.5144 21.6881 26.9056 21.2749 26.3168C20.8717 25.7424 20.4913 25.2 19.8001 25.2C19.4569 25.2 19.1853 25.3268 18.9197 25.6112C18.8449 25.692 18.7177 25.6964 18.6373 25.6208C18.5565 25.5456 18.5521 25.4192 18.6277 25.3384C18.9701 24.9712 19.3425 24.8 19.8001 24.8C20.6989 24.8 21.1789 25.484 21.6021 26.0872C21.9893 26.6384 22.3233 27.1144 22.9001 27.1144H24.6437C25.5021 27.1144 26.2001 27.8096 26.2001 28.6644C26.2001 28.7752 26.1105 28.8644 26.0001 28.8644Z" fill="#472B29"/>
<path d="M17.466 27.2908C17.4012 27.2908 17.3376 27.2592 17.2992 27.2008C17.2384 27.1088 17.2636 26.9848 17.356 26.924C17.6612 26.7224 17.8812 26.3872 18.1144 26.0324L18.1652 25.9556C18.2256 25.8632 18.3496 25.8372 18.442 25.8988C18.534 25.9592 18.5596 26.0836 18.4988 26.1756L18.4488 26.2516C18.204 26.6248 17.9504 27.01 17.5764 27.2572C17.542 27.28 17.504 27.2908 17.466 27.2908Z" fill="#472B29"/>
<path d="M13.5999 28.8644C13.4895 28.8644 13.3999 28.7748 13.3999 28.6644C13.3999 27.8096 14.0979 27.1144 14.9563 27.1144H16.6999C16.8103 27.1144 16.8999 27.204 16.8999 27.3144C16.8999 27.4248 16.8103 27.5144 16.6999 27.5144H14.9563C14.3187 27.5144 13.7999 28.0304 13.7999 28.6644C13.7999 28.7752 13.7103 28.8644 13.5999 28.8644Z" fill="#472B29"/>
<path d="M27.3998 15.4921H20.225C20.1698 15.4921 20.125 15.4473 20.125 15.3921C20.125 15.3369 20.1698 15.2921 20.225 15.2921H27.3998C27.455 15.2921 27.4998 15.3369 27.4998 15.3921C27.4998 15.4473 27.455 15.4921 27.3998 15.4921Z" fill="#472B29"/>
<path d="M19.6999 15.4921H16.4247C16.3695 15.4921 16.3247 15.4473 16.3247 15.3921C16.3247 15.3369 16.3695 15.2921 16.4247 15.2921H19.6999C19.7551 15.2921 19.7999 15.3369 19.7999 15.3921C19.7999 15.4473 19.7551 15.4921 19.6999 15.4921Z" fill="#472B29"/>
<path d="M15.5497 15.4921H12.7997C12.7445 15.4921 12.6997 15.4473 12.6997 15.3921C12.6997 15.3369 12.7445 15.2921 12.7997 15.2921H15.5497C15.6049 15.2921 15.6497 15.3369 15.6497 15.3921C15.6497 15.4473 15.6049 15.4921 15.5497 15.4921Z" fill="#472B29"/>
<path d="M17.3753 16.3H12.2001C12.1449 16.3 12.1001 16.2552 12.1001 16.2C12.1001 16.1448 12.1449 16.1 12.2001 16.1H17.3753C17.4305 16.1 17.4753 16.1448 17.4753 16.2C17.4753 16.2552 17.4301 16.3 17.3753 16.3Z" fill="#472B29"/>
<path d="M27.4001 16.3H18.5253C18.4701 16.3 18.4253 16.2552 18.4253 16.2C18.4253 16.1448 18.4701 16.1 18.5253 16.1H27.4001C27.4553 16.1 27.5001 16.1448 27.5001 16.2C27.5001 16.2552 27.4553 16.3 27.4001 16.3Z" fill="#472B29"/>
<path d="M17.4407 10.378C17.3539 10.378 17.2739 10.3212 17.2487 10.234C17.2179 10.1276 17.2791 10.0168 17.3851 9.98602C18.0247 9.80042 18.7335 9.68682 19.4931 9.64762C19.6183 9.63482 19.6975 9.72682 19.7027 9.83722C19.7087 9.94722 19.6239 10.0416 19.5131 10.0468C18.7851 10.0844 18.1063 10.1932 17.4967 10.3704C17.4775 10.3756 17.4587 10.378 17.4407 10.378Z" fill="#472B29"/>
<path d="M13.6975 13.9528C13.6863 13.9528 13.6751 13.952 13.6639 13.95C13.5551 13.9316 13.4815 13.8284 13.4999 13.7196C13.5147 13.6316 13.8899 11.5584 16.3183 10.3912C16.4179 10.3432 16.5375 10.3852 16.5851 10.4844C16.6331 10.584 16.5915 10.7036 16.4919 10.7512C14.2479 11.83 13.8979 13.7664 13.8947 13.786C13.8779 13.8836 13.7931 13.9528 13.6975 13.9528Z" fill="#472B29"/>
</svg>
